<?xml version="1.0" encoding="utf-8"?>
<!-- Generator: Adobe Illustrator 16.0.4, SVG Export Plug-In . SVG Version: 6.00 Build 0)  -->
<!DOCTYPE svg PUBLIC "-//W3C//DTD SVG 1.1//EN" "http://www.w3.org/Graphics/SVG/1.1/DTD/svg11.dtd">
<svg version="1.1" id="Layer_1" xmlns="http://www.w3.org/2000/svg" xmlns:xlink="http://www.w3.org/1999/xlink" x="0px" y="0px"
	 width="33.061px" height="33.059px" viewBox="0 0 33.061 33.059" enable-background="new 0 0 33.061 33.059" xml:space="preserve">
<g>
	<path fill="#231F20" d="M16.53-0.013C7.401-0.013,0,7.388,0,16.517c0,9.129,7.401,16.529,16.53,16.529
		c9.129,0,16.53-7.4,16.53-16.529C33.061,7.388,25.659-0.013,16.53-0.013z M26.472,16.824c-0.425,1.675-2.096,3.219-3.923,2.949
		c-1.646-0.243-3.172-0.805-4.639-1.532c0.009,0.183,0.023,0.365,0.027,0.549c0.011,0.683,0.012,1.366,0.008,2.051
		c-0.007,1.23,0.008,2.657-0.432,3.859c0.573-0.145,1.147-0.288,1.721-0.433c2.412-0.605,5.987-0.969,6.173-4.138
		c-0.026,0.464,0.04,1.312,0.006,1.907c-0.189,3.227-3.712,3.588-6.179,4.209c-2.014,0.504-4.028,1.01-6.042,1.516
		c0-0.286,0-0.571,0-0.856c-0.046-0.521-0.1-1.089,0-1.12c1.732-0.541,3.735-1.184,4.318-3.105c0.15-0.495,0.261-0.999,0.318-1.514
		c0.038-0.333,0.07-0.668,0.085-1.003c-0.03-0.653-0.06-1.304-0.07-1.958c-0.424-0.212-0.842-0.438-1.258-0.674
		c0.003,0.002,0.003,0.009,0.006,0.011c-0.411-0.235-0.893-0.5-1.412-0.764c-0.022,0.378-0.047,0.756-0.091,1.138
		c-0.118,1.027-0.17,2.183-0.559,3.152c-0.667,1.655-2.058,3.271-4.025,3.012c-1.961-0.258-3.404-1.688-3.812-3.611
		c-0.16-0.755-0.18-1.498-0.182-2.266c-0.003-0.635-0.08-1.37,0.078-1.994c0.426-1.675,2.096-3.219,3.924-2.949
		c1.646,0.244,3.173,0.805,4.64,1.533c-0.009-0.184-0.024-0.366-0.027-0.55c-0.013-0.684-0.013-1.367-0.01-2.051
		c0.008-1.23-0.006-2.658,0.432-3.859c-0.573,0.144-1.146,0.288-1.72,0.432c-2.363,0.593-5.788,0.949-6.142,3.966
		c0,0.09,0,0.186,0.002,0.259c-0.03-0.85-0.192-1.927,0.086-2.749c0.399-1.179,1.255-2.119,2.451-2.521
		c0.859-0.289,1.758-0.47,2.635-0.692c2.336-0.585,4.672-1.171,7.008-1.757c0,0.282,0,0.563,0,0.845c0.046,0.523,0.102,1.1,0,1.132
		c-1.73,0.54-3.734,1.184-4.317,3.104c-0.15,0.496-0.26,1-0.319,1.514c-0.038,0.338-0.07,0.676-0.083,1.016
		c0.031,0.649,0.06,1.296,0.07,1.945c0.424,0.212,0.843,0.439,1.258,0.675c-0.003-0.002-0.003-0.01-0.006-0.012
		c0.411,0.235,0.894,0.5,1.413,0.764c0.021-0.378,0.047-0.756,0.091-1.137c0.118-1.027,0.169-2.183,0.559-3.151
		c0.666-1.656,2.058-3.271,4.025-3.013c1.961,0.258,3.402,1.687,3.812,3.611c0.161,0.756,0.181,1.499,0.183,2.267
		C26.553,15.465,26.631,16.2,26.472,16.824z"/>
	<path fill="#231F20" d="M24.845,11.894c-1.312-1.027-3.363-1.459-4.724-0.25c-1.428,1.268-1.828,2.904-2.058,4.703
		c2.809,1.396,6.724,2.654,8.17-0.79c0.082-0.196,0.16-0.396,0.209-0.604c-0.05-0.31-0.11-0.619-0.216-0.916
		C25.947,13.238,25.527,12.427,24.845,11.894z"/>
	<path fill="#231F20" d="M6.827,17.476c-0.082,0.196-0.161,0.396-0.21,0.605c0.05,0.31,0.111,0.618,0.215,0.915
		c0.281,0.799,0.7,1.609,1.382,2.143c1.313,1.026,3.364,1.459,4.724,0.252c1.429-1.268,1.829-2.905,2.058-4.705
		C12.188,15.29,8.273,14.031,6.827,17.476z"/>
</g>
</svg>
